<?xml version="1.0" encoding="utf-8"?>
<!-- Generator: Adobe Illustrator 22.1.0, SVG Export Plug-In . SVG Version: 6.00 Build 0)  -->
<svg version="1.1" baseProfile="tiny" id="Layer_1" xmlns="http://www.w3.org/2000/svg" xmlns:xlink="http://www.w3.org/1999/xlink"
	 x="0px" y="0px" viewBox="0 0 112.4 65.4" xml:space="preserve">
<g id="Layer_3_x5F_1">
	<rect x="4" y="4.3" fill="#108A8A" width="102.9" height="56.1"/>
</g>
<g id="Layer_3_x5F_4">
	<polygon fill="#FFFFFF" points="20.2,32.3 23.4,38.7 30.4,39.7 25.3,44.7 26.5,51.7 20.2,48.4 13.9,51.7 15.1,44.7 10,39.7 
		17.1,38.7 	"/>
</g>
<g id="Layer_2_x5F_3">
	<path d="M21.9,22c0,0.1,0,0.1-0.1,0.2c0,0-0.1,0-0.2,0c-0.2,0-0.6,0-1,0c-0.6,0-1,0-1.1,0s-0.2-0.1-0.2-0.2c0-0.3,0-0.8,0-1.4
		s0-1.1,0-1.4c0-0.2,0-0.2-0.1-0.3c-0.1,0-0.6,0-1.4,0c-0.8,0-1.3,0-1.4,0c-0.1,0-0.1,0.1-0.1,0.3c0,0.3,0,0.8,0,1.4s0,1.1,0,1.4
		c0,0.1-0.1,0.2-0.2,0.2c-0.1,0-0.5,0-1.1,0c-0.5,0-0.9,0-1,0c-0.1,0-0.2-0.1-0.2-0.2c0-0.4,0-1.1,0.1-1.9s0.1-1.5,0.1-1.9
		c0-0.5,0-1.1-0.1-2S14,14.5,14,14c0-0.1,0-0.1,0.1-0.1c0.1,0,0.3,0,0.5,0s0.4,0,0.5,0c0.1,0,0.3,0,0.6,0s0.4,0,0.6,0
		c0.1,0,0.1,0,0.1,0.1c0,0.3,0,0.7-0.1,1.3s-0.1,1-0.1,1.3c0,0.1,0,0.2,0.1,0.2c0.1,0,0.6,0,1.5,0c0.8,0,1.3,0,1.5,0
		c0.1,0,0.1-0.1,0.1-0.2c0-0.3,0-0.7,0-1.3s0-1,0-1.3c0-0.1,0-0.2,0.1-0.2c0.1,0,0.3,0,0.5,0s0.4,0,0.5,0c0.1,0,0.3,0,0.5,0
		s0.4,0,0.5,0c0.1,0,0.2,0,0.2,0.1c0,0.4,0,1.1-0.1,2s-0.1,1.6-0.1,2c0,0.4,0,1.1,0.1,1.9S21.9,21.5,21.9,22z"/>
	<path d="M28.3,19c0,0.4-0.1,0.6-0.4,0.7c0,0-0.4,0.1-1.2,0.1c-0.5,0.1-1.1,0.1-2.1,0.2c0.1,0.3,0.2,0.4,0.5,0.6
		c0.2,0.1,0.5,0.2,0.8,0.2c0.3,0,0.7-0.1,1-0.3c0.1-0.1,0.3-0.2,0.4-0.3c0.1,0,0.2,0.2,0.4,0.6s0.3,0.6,0.3,0.7c0,0,0,0.1-0.1,0.1
		c-0.5,0.5-1.2,0.8-2.2,0.8c-0.9,0-1.7-0.3-2.3-0.8c-0.6-0.6-0.9-1.3-0.9-2.2c0-0.9,0.3-1.6,0.8-2.2c0.5-0.6,1.3-0.9,2.1-0.9
		c0.8,0,1.4,0.3,1.9,0.8S28.3,18.2,28.3,19z M26.2,18.6c0-0.2-0.1-0.5-0.3-0.6s-0.4-0.3-0.6-0.3c-0.2,0-0.4,0.1-0.6,0.3
		c-0.1,0.2-0.2,0.4-0.2,0.7c0,0.1,0.1,0.2,0.2,0.2c0.3,0,0.7,0,1.3-0.1C26.2,18.7,26.2,18.6,26.2,18.6z"/>
	<path d="M31.1,18.6c0,1.1,0,1.9,0,2.5c0,0.1,0,0.2,0,0.5c0,0.2,0,0.4,0,0.5c0,0.1,0,0.1-0.1,0.1c-0.2,0-0.5,0-0.9,0
		c-0.5,0-0.8,0-0.9,0C29,22.1,29,22.1,29,22c0,0,0-0.1,0-0.3c0-0.3,0-0.9,0-1.6s0-1.2,0-1.6c0-1.6,0-2.4,0-2.2
		c0-0.9-0.1-1.6-0.1-2.2c0,0,0-0.1,0-0.1c0-0.1,0.1-0.1,0.2-0.1h2.1c0.1,0,0.1,0,0.1,0.1l0,0.1C31.1,15.8,31.1,17.3,31.1,18.6z"/>
	<path d="M34.3,18.6c0,1.1,0,1.9,0,2.5c0,0.1,0,0.2,0,0.5c0,0.2,0,0.4,0,0.5c0,0.1,0,0.1-0.1,0.1c-0.2,0-0.5,0-0.9,0
		c-0.5,0-0.8,0-0.9,0c-0.1,0-0.1-0.1-0.1-0.2c0,0,0-0.1,0-0.3c0-0.3,0-0.9,0-1.6s0-1.2,0-1.6c0-1.6,0-2.4,0-2.2
		c0-0.9-0.1-1.6-0.1-2.2c0,0,0-0.1,0-0.1c0-0.1,0.1-0.1,0.2-0.1h2.1c0.1,0,0.1,0,0.1,0.1l0,0.1C34.3,15.8,34.3,17.3,34.3,18.6z"/>
	<path d="M41,19.3c0,0.9-0.3,1.6-0.8,2.2s-1.3,0.8-2.1,0.8c-0.9,0-1.6-0.3-2.1-0.8s-0.8-1.3-0.8-2.1c0-0.9,0.3-1.6,0.8-2.2
		s1.3-0.8,2.2-0.8c0.9,0,1.6,0.3,2.1,0.8S41,18.4,41,19.3z M39.1,19.3c0-0.3-0.1-0.6-0.3-0.8s-0.4-0.4-0.7-0.4
		c-0.3,0-0.6,0.1-0.8,0.4c-0.2,0.2-0.3,0.5-0.3,0.8c0,0.3,0.1,0.6,0.3,0.8c0.2,0.2,0.5,0.4,0.8,0.4c0.3,0,0.6-0.1,0.8-0.4
		C39,19.8,39.1,19.6,39.1,19.3z"/>
	<path d="M55.1,16.9c0,0-0.4,0.8-1.1,2.4c-0.7,1.6-1.2,2.5-1.3,2.7c0,0.1-0.1,0.1-0.1,0.1c0,0-0.1,0-0.1,0.1c-0.1,0-0.4,0-0.8,0
		c-0.4,0-0.7,0-0.8,0c-0.1,0-0.1,0-0.1,0s0,0-0.1-0.1c0,0-0.1-0.3-0.3-0.8l-0.6-1.6l-0.7,1.6c-0.1,0.2-0.2,0.5-0.3,0.8
		c0,0.1-0.1,0.1-0.1,0.1s-0.1,0-0.1,0c-0.1,0-0.4,0-0.8,0c-0.5,0-0.8,0-0.8,0c-0.1,0-0.1-0.1-0.2-0.2c-1.5-3.1-2.3-4.8-2.3-5.1
		c0-0.3,0-0.8,0-1.4s0-1.1,0-1.4c0-0.1,0-0.2,0.1-0.2c0.2,0,0.6,0,1,0s0.8,0,1,0c0.1,0,0.1,0,0.1,0.1c0,0.3,0,0.8,0,1.4s0,1.1,0,1.4
		c0,0.1,0.1,0.5,0.4,1.1c0.3,0.6,0.4,0.9,0.6,1.1c0.1,0.1,0.1,0.2,0.1,0.2c0,0,0.1-0.2,0.2-0.6c0.4-1.1,0.6-1.7,0.6-1.9
		c0-0.4,0-0.8,0-1.4c0-0.8,0-1.3,0-1.4c0-0.1,0-0.1,0-0.1s0.1,0,0.1,0c0.2,0,0.5,0,1,0c0.7,0,1.1,0.1,1.1,0.2c0,0.3,0,0.7,0,1.2
		c0,0.5,0,0.9,0,1.2v0.3c0,0.2,0.2,0.8,0.6,1.9c0.1,0.4,0.2,0.6,0.2,0.6c0,0,0.1-0.1,0.1-0.2c0.1-0.2,0.3-0.6,0.5-1.1
		c0.3-0.6,0.4-1,0.4-1.1c0-0.3,0-0.8,0-1.4s0-1.1,0-1.4c0-0.1,0-0.1,0.1-0.1c0.2,0,0.6,0,1,0s0.8,0,1,0c0.1,0,0.1,0.1,0.1,0.2
		c0,0.3,0,0.8,0,1.4S55.1,16.6,55.1,16.9z"/>
	<path d="M61.6,19.3c0,0.9-0.3,1.6-0.8,2.2s-1.3,0.8-2.1,0.8c-0.9,0-1.6-0.3-2.1-0.8s-0.8-1.3-0.8-2.1c0-0.9,0.3-1.6,0.8-2.2
		s1.3-0.8,2.2-0.8c0.9,0,1.6,0.3,2.1,0.8S61.6,18.4,61.6,19.3z M59.7,19.3c0-0.3-0.1-0.6-0.3-0.8s-0.4-0.4-0.7-0.4
		c-0.3,0-0.6,0.1-0.8,0.4c-0.2,0.2-0.3,0.5-0.3,0.8c0,0.3,0.1,0.6,0.3,0.8c0.2,0.2,0.5,0.4,0.8,0.4c0.3,0,0.6-0.1,0.8-0.4
		C59.6,19.8,59.7,19.6,59.7,19.3z"/>
	<path d="M66.2,18.5c0,0.2-0.1,0.2-0.3,0.2c-0.1,0-0.2,0-0.3,0s-0.2,0-0.3,0c-0.3,0-0.5,0.1-0.7,0.2s-0.2,0.3-0.2,0.6
		c0,0.2,0,0.4,0,0.8s0,0.6,0,0.8c0,0.1,0,0.3,0,0.5s0,0.4,0,0.5c0,0.1-0.1,0.1-0.2,0.2c-0.2,0-0.5,0-0.9,0c-0.4,0-0.7,0-0.9,0
		c-0.1,0-0.2-0.1-0.2-0.2c0-0.3,0-0.8,0-1.4s0-1.1,0-1.4c0-0.9-0.1-1.7-0.3-2.3c0,0,0-0.1,0-0.1c0-0.1,0-0.1,0.1-0.1
		c0.2,0,0.5-0.1,0.9-0.1c0.6-0.1,0.9-0.2,1-0.2c0.1,0,0.1,0.1,0.1,0.4s0.1,0.4,0.1,0.4c-0.1,0,0.1-0.1,0.5-0.3s0.7-0.3,1.1-0.3
		c0.2,0,0.3,0,0.3,0.1c0,0.1,0,0.3,0,0.5c0,0.2,0,0.4,0,0.5c0,0.1,0,0.3,0,0.5C66.2,18.3,66.2,18.4,66.2,18.5z"/>
	<path d="M69,18.6c0,1.1,0,1.9,0,2.5c0,0.1,0,0.2,0,0.5c0,0.2,0,0.4,0,0.5c0,0.1,0,0.1-0.1,0.1c-0.2,0-0.5,0-0.9,0
		c-0.5,0-0.8,0-0.9,0c-0.1,0-0.1-0.1-0.1-0.2c0,0,0-0.1,0-0.3c0-0.3,0-0.9,0-1.6s0-1.2,0-1.6c0-1.6,0-2.4,0-2.2
		c0-0.9-0.1-1.6-0.1-2.2c0,0,0-0.1,0-0.1c0-0.1,0.1-0.1,0.2-0.1H69c0.1,0,0.1,0,0.1,0.1l0,0.1C69.1,15.8,69,17.3,69,18.6z"/>
	<path d="M76.3,13.8c0-0.1,0,0,0,0.4c0,0.4-0.1,1-0.1,1.7c0,0.8,0,1.6,0,2.6c0,1.6,0,2.8,0.1,3.4c0,0.1,0,0.1,0,0.1
		c0,0,0,0.1-0.1,0.1c-0.1,0-0.7,0-1.6,0c-0.2,0-0.3,0-0.4-0.1c0-0.1,0-0.3,0-0.4c0,0,0-0.1,0-0.1c0,0-0.1,0-0.1,0.1
		c-0.4,0.4-0.9,0.6-1.6,0.6c-0.8,0-1.5-0.3-2-0.9c-0.5-0.6-0.7-1.2-0.7-2.1c0-0.9,0.2-1.6,0.7-2.1c0.5-0.6,1.2-0.9,2-0.9
		c0.6,0,1,0.2,1.4,0.6c0.1,0.1,0.1,0.1,0.1,0.1c0,0,0.1-0.1,0.1-0.2c0-0.3,0-0.8,0-1.3s0-1,0-1.3c0-0.1,0-0.2,0.1-0.2
		c0.3,0,0.6,0,1-0.1c0.8-0.1,1.1-0.1,1-0.1C76.2,13.7,76.3,13.7,76.3,13.8z M74.1,19.2c0-0.3-0.1-0.6-0.3-0.8s-0.5-0.3-0.8-0.3
		c-0.3,0-0.6,0.1-0.8,0.3s-0.3,0.5-0.3,0.8c0,0.3,0.1,0.6,0.3,0.8c0.2,0.2,0.4,0.4,0.8,0.4s0.6-0.1,0.8-0.4S74.1,19.5,74.1,19.2z"/>
	<path d="M79.5,15.3c0,0.7-0.1,1.4-0.2,2c-0.2,0.6-0.3,1.3-0.5,1.9c0,0.1-0.2,0.2-0.5,0.2c-0.3,0-0.5-0.1-0.5-0.2
		c-0.4-1.3-0.6-2-0.6-2.1c0-0.2,0-0.4,0-0.7s0-0.6,0-0.7c0-0.2,0-0.4,0-0.8s0-0.6,0-0.8c0-0.1,0-0.2,0.1-0.2c0.1,0,0.3,0,0.5,0
		s0.4,0,0.5,0s0.3,0,0.5,0s0.4,0,0.5,0C79.5,13.9,79.5,14.4,79.5,15.3z M79.5,21.1c0,0.3-0.1,0.6-0.3,0.8s-0.5,0.3-0.8,0.3
		c-0.3,0-0.6-0.1-0.8-0.3s-0.3-0.5-0.3-0.8c0-0.3,0.1-0.6,0.3-0.8s0.5-0.3,0.8-0.3c0.3,0,0.6,0.1,0.8,0.3S79.5,20.8,79.5,21.1z"/>
</g>
<g id="Layer_x5F_2">
	<circle cx="89.1" cy="37.4" r="10.6"/>
	<circle cx="58.4" cy="46.4" r="7.4"/>
</g>
</svg>
